<?xml version="1.0" encoding="utf-8"?>
<!-- Generator: Adobe Illustrator 16.0.0, SVG Export Plug-In . SVG Version: 6.00 Build 0)  -->
<!DOCTYPE svg PUBLIC "-//W3C//DTD SVG 1.1//EN" "http://www.w3.org/Graphics/SVG/1.1/DTD/svg11.dtd">
<svg version="1.1" id="Layer_1" xmlns="http://www.w3.org/2000/svg" xmlns:xlink="http://www.w3.org/1999/xlink" x="0px" y="0px"
	 width="235.189px" height="268.721px" viewBox="0 0 235.189 268.721" enable-background="new 0 0 235.189 268.721"
	 xml:space="preserve">
<g>
	<polygon fill="#FFFFFF" points="161.053,119.193 135.949,92.748 135.949,92.598 99.241,92.598 99.241,92.748 74.137,119.193 	"/>
	<g>
		<polygon fill="#FFFFFF" points="124.42,268.721 170.323,223.408 165.865,131.215 101.305,131.215 		"/>
		<polygon fill="#FFFFFF" points="86.893,131.215 69.323,131.215 64.866,223.408 109.857,267.821 		"/>
	</g>
	<polygon fill="#FFFFFF" points="105.723,85.938 93.851,65.375 109.671,23.953 125.52,23.953 141.338,65.375 129.467,85.938 	"/>
	<g>
		<polygon fill="#FFFFFF" points="110.487,3 88.713,14.75 83.939,0 74.137,10.5 88.713,25 102.963,15.75 107.081,30.736 
			114.299,24.789 		"/>
	</g>
	<g>
		<polygon fill="#FFFFFF" points="124.714,3 146.488,14.75 151.262,0 161.064,10.5 146.488,25 132.238,15.75 128.12,30.736 
			120.902,24.789 		"/>
	</g>
	<g>
		<g>
			<polygon fill="#FFFFFF" points="235.189,125.75 210.939,97.75 224.939,82.25 215.743,77.153 202.771,98.215 216.689,122.151 
				178.711,135.222 179.271,151.93 			"/>
			<polygon fill="#FFFFFF" points="213.939,190.5 179.826,168.442 180.404,185.684 199.531,196.25 197.439,249.75 217.61,268.271 
				226.606,259.083 208.091,246.701 			"/>
			<polygon fill="#FFFFFF" points="167.939,51.25 177.689,33.25 162.945,36.263 158.657,55.844 158.654,55.848 158.656,55.849 
				158.65,55.873 158.699,55.884 182.439,67.821 151.25,96.444 161.351,105.896 203.439,63.75 			"/>
		</g>
		<g>
			<polygon fill="#FFFFFF" points="0,125.75 24.25,97.75 10.25,82.25 19.446,77.153 32.418,98.215 18.5,122.151 56.479,135.222 
				55.918,151.93 			"/>
			<polygon fill="#FFFFFF" points="21.25,190.5 55.363,168.442 54.785,185.684 35.658,196.25 37.75,249.75 17.579,268.271 
				8.583,259.083 27.099,246.701 			"/>
			<polygon fill="#FFFFFF" points="67.25,51.25 57.5,33.25 72.244,36.263 76.532,55.844 76.535,55.848 76.533,55.849 76.539,55.873 
				76.49,55.884 52.75,67.821 83.939,96.444 73.839,105.896 31.75,63.75 			"/>
		</g>
	</g>
</g>
</svg>
